<mxfile host="app.diagrams.net" modified="2022-05-26T08:52:15.430Z" agent="5.0 (Macintosh; Intel Mac OS X 10_15_7) AppleWebKit/537.36 (KHTML, like Gecko) Chrome/102.0.5005.61 Safari/537.36" etag="c-kKpqVsuH4QPGsblyHn" version="18.0.6" type="github">
  <diagram id="aCxIF_p1jTUdYNYcjFT6" name="Page-1">
    <mxGraphModel dx="751" dy="418" grid="1" gridSize="10" guides="1" tooltips="1" connect="1" arrows="1" fold="1" page="1" pageScale="1" pageWidth="1169" pageHeight="827" math="0" shadow="0">
      <root>
        <mxCell id="0" />
        <mxCell id="1" parent="0" />
        <mxCell id="dJkj9ELoj1MnBdwX1dgS-9" value="PromMetricBase" style="swimlane;fontStyle=0;childLayout=stackLayout;horizontal=1;startSize=26;fillColor=none;horizontalStack=0;resizeParent=1;resizeParentMax=0;resizeLast=0;collapsible=1;marginBottom=0;strokeColor=default;" vertex="1" parent="1">
          <mxGeometry x="230" y="400" width="170" height="130" as="geometry" />
        </mxCell>
        <mxCell id="dJkj9ELoj1MnBdwX1dgS-10" value="+ metricName: string" style="text;strokeColor=none;fillColor=none;align=left;verticalAlign=top;spacingLeft=4;spacingRight=4;overflow=hidden;rotatable=0;points=[[0,0.5],[1,0.5]];portConstraint=eastwest;" vertex="1" parent="dJkj9ELoj1MnBdwX1dgS-9">
          <mxGeometry y="26" width="170" height="26" as="geometry" />
        </mxCell>
        <mxCell id="dJkj9ELoj1MnBdwX1dgS-11" value="+ help: string" style="text;strokeColor=none;fillColor=none;align=left;verticalAlign=top;spacingLeft=4;spacingRight=4;overflow=hidden;rotatable=0;points=[[0,0.5],[1,0.5]];portConstraint=eastwest;" vertex="1" parent="dJkj9ELoj1MnBdwX1dgS-9">
          <mxGeometry y="52" width="170" height="26" as="geometry" />
        </mxCell>
        <mxCell id="dJkj9ELoj1MnBdwX1dgS-12" value="+ labels: []string" style="text;strokeColor=none;fillColor=none;align=left;verticalAlign=top;spacingLeft=4;spacingRight=4;overflow=hidden;rotatable=0;points=[[0,0.5],[1,0.5]];portConstraint=eastwest;" vertex="1" parent="dJkj9ELoj1MnBdwX1dgS-9">
          <mxGeometry y="78" width="170" height="26" as="geometry" />
        </mxCell>
        <mxCell id="dJkj9ELoj1MnBdwX1dgS-13" value="+ createMetric: sync.Once" style="text;strokeColor=none;fillColor=none;align=left;verticalAlign=top;spacingLeft=4;spacingRight=4;overflow=hidden;rotatable=0;points=[[0,0.5],[1,0.5]];portConstraint=eastwest;" vertex="1" parent="dJkj9ELoj1MnBdwX1dgS-9">
          <mxGeometry y="104" width="170" height="26" as="geometry" />
        </mxCell>
        <mxCell id="dJkj9ELoj1MnBdwX1dgS-14" value="PromGaugeWrap" style="swimlane;fontStyle=1;align=center;verticalAlign=top;childLayout=stackLayout;horizontal=1;startSize=26;horizontalStack=0;resizeParent=1;resizeParentMax=0;resizeLast=0;collapsible=1;marginBottom=0;strokeColor=default;" vertex="1" parent="1">
          <mxGeometry x="60" y="570" width="210" height="52" as="geometry" />
        </mxCell>
        <mxCell id="dJkj9ELoj1MnBdwX1dgS-17" value="+ Set(float64, interface{}): WMSError" style="text;strokeColor=none;fillColor=none;align=left;verticalAlign=top;spacingLeft=4;spacingRight=4;overflow=hidden;rotatable=0;points=[[0,0.5],[1,0.5]];portConstraint=eastwest;" vertex="1" parent="dJkj9ELoj1MnBdwX1dgS-14">
          <mxGeometry y="26" width="210" height="26" as="geometry" />
        </mxCell>
        <mxCell id="dJkj9ELoj1MnBdwX1dgS-18" value="PromCounterWrap" style="swimlane;fontStyle=1;align=center;verticalAlign=top;childLayout=stackLayout;horizontal=1;startSize=26;horizontalStack=0;resizeParent=1;resizeParentMax=0;resizeLast=0;collapsible=1;marginBottom=0;strokeColor=default;" vertex="1" parent="1">
          <mxGeometry x="300" y="570" width="210" height="78" as="geometry" />
        </mxCell>
        <mxCell id="dJkj9ELoj1MnBdwX1dgS-20" value="+ Incr(interface{}): WMSError" style="text;strokeColor=none;fillColor=none;align=left;verticalAlign=top;spacingLeft=4;spacingRight=4;overflow=hidden;rotatable=0;points=[[0,0.5],[1,0.5]];portConstraint=eastwest;" vertex="1" parent="dJkj9ELoj1MnBdwX1dgS-18">
          <mxGeometry y="26" width="210" height="26" as="geometry" />
        </mxCell>
        <mxCell id="dJkj9ELoj1MnBdwX1dgS-21" value="+ Add(float64 , interface{}): WMSError" style="text;strokeColor=none;fillColor=none;align=left;verticalAlign=top;spacingLeft=4;spacingRight=4;overflow=hidden;rotatable=0;points=[[0,0.5],[1,0.5]];portConstraint=eastwest;" vertex="1" parent="dJkj9ELoj1MnBdwX1dgS-18">
          <mxGeometry y="52" width="210" height="26" as="geometry" />
        </mxCell>
        <mxCell id="dJkj9ELoj1MnBdwX1dgS-22" value="PromSummaryWrap" style="swimlane;fontStyle=1;align=center;verticalAlign=top;childLayout=stackLayout;horizontal=1;startSize=26;horizontalStack=0;resizeParent=1;resizeParentMax=0;resizeLast=0;collapsible=1;marginBottom=0;strokeColor=default;" vertex="1" parent="1">
          <mxGeometry x="60" y="656" width="240" height="78" as="geometry" />
        </mxCell>
        <mxCell id="dJkj9ELoj1MnBdwX1dgS-25" value="+ objectives: map[float64]float64" style="text;strokeColor=none;fillColor=none;align=left;verticalAlign=top;spacingLeft=4;spacingRight=4;overflow=hidden;rotatable=0;points=[[0,0.5],[1,0.5]];portConstraint=eastwest;" vertex="1" parent="dJkj9ELoj1MnBdwX1dgS-22">
          <mxGeometry y="26" width="240" height="26" as="geometry" />
        </mxCell>
        <mxCell id="dJkj9ELoj1MnBdwX1dgS-24" value="+ Observe(float64, interface{}): WMSError" style="text;strokeColor=none;fillColor=none;align=left;verticalAlign=top;spacingLeft=4;spacingRight=4;overflow=hidden;rotatable=0;points=[[0,0.5],[1,0.5]];portConstraint=eastwest;" vertex="1" parent="dJkj9ELoj1MnBdwX1dgS-22">
          <mxGeometry y="52" width="240" height="26" as="geometry" />
        </mxCell>
        <mxCell id="dJkj9ELoj1MnBdwX1dgS-26" value="PromHistogramWrap" style="swimlane;fontStyle=1;align=center;verticalAlign=top;childLayout=stackLayout;horizontal=1;startSize=26;horizontalStack=0;resizeParent=1;resizeParentMax=0;resizeLast=0;collapsible=1;marginBottom=0;strokeColor=default;" vertex="1" parent="1">
          <mxGeometry x="320" y="666" width="240" height="78" as="geometry" />
        </mxCell>
        <mxCell id="dJkj9ELoj1MnBdwX1dgS-27" value="+ buckets: []float64" style="text;strokeColor=none;fillColor=none;align=left;verticalAlign=top;spacingLeft=4;spacingRight=4;overflow=hidden;rotatable=0;points=[[0,0.5],[1,0.5]];portConstraint=eastwest;" vertex="1" parent="dJkj9ELoj1MnBdwX1dgS-26">
          <mxGeometry y="26" width="240" height="26" as="geometry" />
        </mxCell>
        <mxCell id="dJkj9ELoj1MnBdwX1dgS-28" value="+ Observe(float64, interface{}): WMSError" style="text;strokeColor=none;fillColor=none;align=left;verticalAlign=top;spacingLeft=4;spacingRight=4;overflow=hidden;rotatable=0;points=[[0,0.5],[1,0.5]];portConstraint=eastwest;" vertex="1" parent="dJkj9ELoj1MnBdwX1dgS-26">
          <mxGeometry y="52" width="240" height="26" as="geometry" />
        </mxCell>
      </root>
    </mxGraphModel>
  </diagram>
</mxfile>
